<?xml version="1.0" encoding="UTF-8" standalone="no"?>
<!DOCTYPE svg PUBLIC "-//W3C//DTD SVG 1.1//EN"
 "http://www.w3.org/Graphics/SVG/1.1/DTD/svg11.dtd">
<!-- Generated by graphviz version 9.0.0 (20230911.1827)
 -->
<!-- Title: model Pages: 1 -->
<svg width="157pt" height="1469pt"
 viewBox="0.00 0.00 157.50 1469.00" xmlns="http://www.w3.org/2000/svg" xmlns:xlink="http://www.w3.org/1999/xlink">
<g id="graph0" class="graph" transform="scale(0.629999 0.629999) rotate(0) translate(4 2327.75)">
<title>model</title>
<polygon fill="white" stroke="none" points="-4,4 -4,-2327.75 246,-2327.75 246,4 -4,4"/>
<g id="clust3" class="cluster">
<title>cluster_4</title>
<polygon fill="none" stroke="black" stroke-dasharray="5,2" points="26,-8 26,-702.75 216,-702.75 216,-8 26,-8"/>
<text text-anchor="middle" x="57.25" y="-687.35" font-family="Times New Roman,serif" font-size="12.00">Sequential</text>
</g>
<g id="clust1" class="cluster">
<title>cluster_2</title>
<polygon fill="none" stroke="black" stroke-dasharray="5,2" points="8,-1501 8,-2283.25 234,-2283.25 234,-1501 8,-1501"/>
<text text-anchor="middle" x="39.25" y="-2267.85" font-family="Times New Roman,serif" font-size="12.00">Sequential</text>
</g>
<g id="clust2" class="cluster">
<title>cluster_3</title>
<polygon fill="none" stroke="black" stroke-dasharray="5,2" points="8,-710.75 8,-1493 234,-1493 234,-710.75 8,-710.75"/>
<text text-anchor="middle" x="39.25" y="-1477.6" font-family="Times New Roman,serif" font-size="12.00">Sequential</text>
</g>
<!-- 0 -->
<g id="node1" class="node">
<title>0</title>
<polygon fill="lightyellow" stroke="none" points="191,-2323.75 51,-2323.75 51,-2291.25 191,-2291.25 191,-2323.75"/>
<polygon fill="none" stroke="black" points="51,-2291.25 51,-2323.75 119.5,-2323.75 119.5,-2291.25 51,-2291.25"/>
<text text-anchor="start" x="56" y="-2309.25" font-family="Linux libertine" font-size="10.00">input&#45;tensor</text>
<text text-anchor="start" x="66.88" y="-2298" font-family="Linux libertine" font-size="10.00">depth:0</text>
<polygon fill="none" stroke="black" points="119.5,-2291.25 119.5,-2323.75 191,-2323.75 191,-2291.25 119.5,-2291.25"/>
<text text-anchor="start" x="124.5" y="-2303.62" font-family="Linux libertine" font-size="10.00">(1, 3, 48, 48)</text>
</g>
<!-- 1 -->
<g id="node2" class="node">
<title>1</title>
<polygon fill="#c1ffc1" stroke="none" points="210.5,-2253 31.5,-2253 31.5,-2211 210.5,-2211 210.5,-2253"/>
<polygon fill="none" stroke="black" points="31.5,-2211 31.5,-2253 77.5,-2253 77.5,-2211 31.5,-2211"/>
<text text-anchor="start" x="36.5" y="-2233.75" font-family="Linux libertine" font-size="10.00">Conv2d</text>
<text text-anchor="start" x="36.12" y="-2222.5" font-family="Linux libertine" font-size="10.00">depth:2</text>
<polygon fill="none" stroke="black" points="77.5,-2232 77.5,-2253 124.5,-2253 124.5,-2232 77.5,-2232"/>
<text text-anchor="start" x="87.5" y="-2238.5" font-family="Linux libertine" font-size="10.00">input:</text>
<polygon fill="none" stroke="black" points="124.5,-2232 124.5,-2253 210.5,-2253 210.5,-2232 124.5,-2232"/>
<text text-anchor="start" x="135.25" y="-2238.5" font-family="Linux libertine" font-size="10.00">(1, 3, 48, 48) </text>
<polygon fill="none" stroke="black" points="77.5,-2211 77.5,-2232 124.5,-2232 124.5,-2211 77.5,-2211"/>
<text text-anchor="start" x="82.25" y="-2217.5" font-family="Linux libertine" font-size="10.00">output: </text>
<polygon fill="none" stroke="black" points="124.5,-2211 124.5,-2232 210.5,-2232 210.5,-2211 124.5,-2211"/>
<text text-anchor="start" x="129.25" y="-2217.5" font-family="Linux libertine" font-size="10.00">(1, 128, 48, 48) </text>
</g>
<!-- 0&#45;&gt;1 -->
<g id="edge1" class="edge">
<title>0&#45;&gt;1</title>
<path fill="none" stroke="black" d="M121,-2291.27C121,-2283.47 121,-2273.66 121,-2264.33"/>
<polygon fill="black" stroke="black" points="124.5,-2264.47 121,-2254.47 117.5,-2264.47 124.5,-2264.47"/>
</g>
<!-- 2 -->
<g id="node3" class="node">
<title>2</title>
<polygon fill="#c1ffc1" stroke="none" points="210.5,-2175 31.5,-2175 31.5,-2133 210.5,-2133 210.5,-2175"/>
<polygon fill="none" stroke="black" points="31.5,-2133 31.5,-2175 77.5,-2175 77.5,-2133 31.5,-2133"/>
<text text-anchor="start" x="42.12" y="-2155.75" font-family="Linux libertine" font-size="10.00">ReLU</text>
<text text-anchor="start" x="36.12" y="-2144.5" font-family="Linux libertine" font-size="10.00">depth:2</text>
<polygon fill="none" stroke="black" points="77.5,-2154 77.5,-2175 124.5,-2175 124.5,-2154 77.5,-2154"/>
<text text-anchor="start" x="87.5" y="-2160.5" font-family="Linux libertine" font-size="10.00">input:</text>
<polygon fill="none" stroke="black" points="124.5,-2154 124.5,-2175 210.5,-2175 210.5,-2154 124.5,-2154"/>
<text text-anchor="start" x="129.25" y="-2160.5" font-family="Linux libertine" font-size="10.00">(1, 128, 48, 48) </text>
<polygon fill="none" stroke="black" points="77.5,-2133 77.5,-2154 124.5,-2154 124.5,-2133 77.5,-2133"/>
<text text-anchor="start" x="82.25" y="-2139.5" font-family="Linux libertine" font-size="10.00">output: </text>
<polygon fill="none" stroke="black" points="124.5,-2133 124.5,-2154 210.5,-2154 210.5,-2133 124.5,-2133"/>
<text text-anchor="start" x="129.25" y="-2139.5" font-family="Linux libertine" font-size="10.00">(1, 128, 48, 48) </text>
</g>
<!-- 1&#45;&gt;2 -->
<g id="edge2" class="edge">
<title>1&#45;&gt;2</title>
<path fill="none" stroke="black" d="M121,-2211.03C121,-2203.44 121,-2194.6 121,-2186.21"/>
<polygon fill="black" stroke="black" points="124.5,-2186.35 121,-2176.35 117.5,-2186.35 124.5,-2186.35"/>
</g>
<!-- 3 -->
<g id="node4" class="node">
<title>3</title>
<polygon fill="#c1ffc1" stroke="none" points="225.5,-2097 16.5,-2097 16.5,-2055 225.5,-2055 225.5,-2097"/>
<polygon fill="none" stroke="black" points="16.5,-2055 16.5,-2097 92.5,-2097 92.5,-2055 16.5,-2055"/>
<text text-anchor="start" x="21.12" y="-2077.75" font-family="Linux libertine" font-size="10.00">BatchNorm2d</text>
<text text-anchor="start" x="36.12" y="-2066.5" font-family="Linux libertine" font-size="10.00">depth:2</text>
<polygon fill="none" stroke="black" points="92.5,-2076 92.5,-2097 139.5,-2097 139.5,-2076 92.5,-2076"/>
<text text-anchor="start" x="102.5" y="-2082.5" font-family="Linux libertine" font-size="10.00">input:</text>
<polygon fill="none" stroke="black" points="139.5,-2076 139.5,-2097 225.5,-2097 225.5,-2076 139.5,-2076"/>
<text text-anchor="start" x="144.25" y="-2082.5" font-family="Linux libertine" font-size="10.00">(1, 128, 48, 48) </text>
<polygon fill="none" stroke="black" points="92.5,-2055 92.5,-2076 139.5,-2076 139.5,-2055 92.5,-2055"/>
<text text-anchor="start" x="97.25" y="-2061.5" font-family="Linux libertine" font-size="10.00">output: </text>
<polygon fill="none" stroke="black" points="139.5,-2055 139.5,-2076 225.5,-2076 225.5,-2055 139.5,-2055"/>
<text text-anchor="start" x="144.25" y="-2061.5" font-family="Linux libertine" font-size="10.00">(1, 128, 48, 48) </text>
</g>
<!-- 2&#45;&gt;3 -->
<g id="edge3" class="edge">
<title>2&#45;&gt;3</title>
<path fill="none" stroke="black" d="M121,-2133.03C121,-2125.44 121,-2116.6 121,-2108.21"/>
<polygon fill="black" stroke="black" points="124.5,-2108.35 121,-2098.35 117.5,-2108.35 124.5,-2108.35"/>
</g>
<!-- 4 -->
<g id="node5" class="node">
<title>4</title>
<polygon fill="#c1ffc1" stroke="none" points="218,-2019 24,-2019 24,-1977 218,-1977 218,-2019"/>
<polygon fill="none" stroke="black" points="24,-1977 24,-2019 85,-2019 85,-1977 24,-1977"/>
<text text-anchor="start" x="28.62" y="-1999.75" font-family="Linux libertine" font-size="10.00">MaxPool2d</text>
<text text-anchor="start" x="36.12" y="-1988.5" font-family="Linux libertine" font-size="10.00">depth:2</text>
<polygon fill="none" stroke="black" points="85,-1998 85,-2019 132,-2019 132,-1998 85,-1998"/>
<text text-anchor="start" x="95" y="-2004.5" font-family="Linux libertine" font-size="10.00">input:</text>
<polygon fill="none" stroke="black" points="132,-1998 132,-2019 218,-2019 218,-1998 132,-1998"/>
<text text-anchor="start" x="136.75" y="-2004.5" font-family="Linux libertine" font-size="10.00">(1, 128, 48, 48) </text>
<polygon fill="none" stroke="black" points="85,-1977 85,-1998 132,-1998 132,-1977 85,-1977"/>
<text text-anchor="start" x="89.75" y="-1983.5" font-family="Linux libertine" font-size="10.00">output: </text>
<polygon fill="none" stroke="black" points="132,-1977 132,-1998 218,-1998 218,-1977 132,-1977"/>
<text text-anchor="start" x="136.75" y="-1983.5" font-family="Linux libertine" font-size="10.00">(1, 128, 24, 24) </text>
</g>
<!-- 3&#45;&gt;4 -->
<g id="edge4" class="edge">
<title>3&#45;&gt;4</title>
<path fill="none" stroke="black" d="M121,-2055.03C121,-2047.44 121,-2038.6 121,-2030.21"/>
<polygon fill="black" stroke="black" points="124.5,-2030.35 121,-2020.35 117.5,-2030.35 124.5,-2030.35"/>
</g>
<!-- 5 -->
<g id="node6" class="node">
<title>5</title>
<polygon fill="#c1ffc1" stroke="none" points="218,-1941 24,-1941 24,-1899 218,-1899 218,-1941"/>
<polygon fill="none" stroke="black" points="24,-1899 24,-1941 85,-1941 85,-1899 24,-1899"/>
<text text-anchor="start" x="29" y="-1921.75" font-family="Linux libertine" font-size="10.00">Dropout2d</text>
<text text-anchor="start" x="36.12" y="-1910.5" font-family="Linux libertine" font-size="10.00">depth:2</text>
<polygon fill="none" stroke="black" points="85,-1920 85,-1941 132,-1941 132,-1920 85,-1920"/>
<text text-anchor="start" x="95" y="-1926.5" font-family="Linux libertine" font-size="10.00">input:</text>
<polygon fill="none" stroke="black" points="132,-1920 132,-1941 218,-1941 218,-1920 132,-1920"/>
<text text-anchor="start" x="136.75" y="-1926.5" font-family="Linux libertine" font-size="10.00">(1, 128, 24, 24) </text>
<polygon fill="none" stroke="black" points="85,-1899 85,-1920 132,-1920 132,-1899 85,-1899"/>
<text text-anchor="start" x="89.75" y="-1905.5" font-family="Linux libertine" font-size="10.00">output: </text>
<polygon fill="none" stroke="black" points="132,-1899 132,-1920 218,-1920 218,-1899 132,-1899"/>
<text text-anchor="start" x="136.75" y="-1905.5" font-family="Linux libertine" font-size="10.00">(1, 128, 24, 24) </text>
</g>
<!-- 4&#45;&gt;5 -->
<g id="edge5" class="edge">
<title>4&#45;&gt;5</title>
<path fill="none" stroke="black" d="M121,-1977.03C121,-1969.44 121,-1960.6 121,-1952.21"/>
<polygon fill="black" stroke="black" points="124.5,-1952.35 121,-1942.35 117.5,-1952.35 124.5,-1952.35"/>
</g>
<!-- 6 -->
<g id="node7" class="node">
<title>6</title>
<polygon fill="#c1ffc1" stroke="none" points="210.5,-1863 31.5,-1863 31.5,-1821 210.5,-1821 210.5,-1863"/>
<polygon fill="none" stroke="black" points="31.5,-1821 31.5,-1863 77.5,-1863 77.5,-1821 31.5,-1821"/>
<text text-anchor="start" x="36.5" y="-1843.75" font-family="Linux libertine" font-size="10.00">Conv2d</text>
<text text-anchor="start" x="36.12" y="-1832.5" font-family="Linux libertine" font-size="10.00">depth:2</text>
<polygon fill="none" stroke="black" points="77.5,-1842 77.5,-1863 124.5,-1863 124.5,-1842 77.5,-1842"/>
<text text-anchor="start" x="87.5" y="-1848.5" font-family="Linux libertine" font-size="10.00">input:</text>
<polygon fill="none" stroke="black" points="124.5,-1842 124.5,-1863 210.5,-1863 210.5,-1842 124.5,-1842"/>
<text text-anchor="start" x="129.25" y="-1848.5" font-family="Linux libertine" font-size="10.00">(1, 128, 24, 24) </text>
<polygon fill="none" stroke="black" points="77.5,-1821 77.5,-1842 124.5,-1842 124.5,-1821 77.5,-1821"/>
<text text-anchor="start" x="82.25" y="-1827.5" font-family="Linux libertine" font-size="10.00">output: </text>
<polygon fill="none" stroke="black" points="124.5,-1821 124.5,-1842 210.5,-1842 210.5,-1821 124.5,-1821"/>
<text text-anchor="start" x="129.25" y="-1827.5" font-family="Linux libertine" font-size="10.00">(1, 128, 24, 24) </text>
</g>
<!-- 5&#45;&gt;6 -->
<g id="edge6" class="edge">
<title>5&#45;&gt;6</title>
<path fill="none" stroke="black" d="M121,-1899.03C121,-1891.44 121,-1882.6 121,-1874.21"/>
<polygon fill="black" stroke="black" points="124.5,-1874.35 121,-1864.35 117.5,-1874.35 124.5,-1874.35"/>
</g>
<!-- 7 -->
<g id="node8" class="node">
<title>7</title>
<polygon fill="#c1ffc1" stroke="none" points="210.5,-1785 31.5,-1785 31.5,-1743 210.5,-1743 210.5,-1785"/>
<polygon fill="none" stroke="black" points="31.5,-1743 31.5,-1785 77.5,-1785 77.5,-1743 31.5,-1743"/>
<text text-anchor="start" x="42.12" y="-1765.75" font-family="Linux libertine" font-size="10.00">ReLU</text>
<text text-anchor="start" x="36.12" y="-1754.5" font-family="Linux libertine" font-size="10.00">depth:2</text>
<polygon fill="none" stroke="black" points="77.5,-1764 77.5,-1785 124.5,-1785 124.5,-1764 77.5,-1764"/>
<text text-anchor="start" x="87.5" y="-1770.5" font-family="Linux libertine" font-size="10.00">input:</text>
<polygon fill="none" stroke="black" points="124.5,-1764 124.5,-1785 210.5,-1785 210.5,-1764 124.5,-1764"/>
<text text-anchor="start" x="129.25" y="-1770.5" font-family="Linux libertine" font-size="10.00">(1, 128, 24, 24) </text>
<polygon fill="none" stroke="black" points="77.5,-1743 77.5,-1764 124.5,-1764 124.5,-1743 77.5,-1743"/>
<text text-anchor="start" x="82.25" y="-1749.5" font-family="Linux libertine" font-size="10.00">output: </text>
<polygon fill="none" stroke="black" points="124.5,-1743 124.5,-1764 210.5,-1764 210.5,-1743 124.5,-1743"/>
<text text-anchor="start" x="129.25" y="-1749.5" font-family="Linux libertine" font-size="10.00">(1, 128, 24, 24) </text>
</g>
<!-- 6&#45;&gt;7 -->
<g id="edge7" class="edge">
<title>6&#45;&gt;7</title>
<path fill="none" stroke="black" d="M121,-1821.03C121,-1813.44 121,-1804.6 121,-1796.21"/>
<polygon fill="black" stroke="black" points="124.5,-1796.35 121,-1786.35 117.5,-1796.35 124.5,-1796.35"/>
</g>
<!-- 8 -->
<g id="node9" class="node">
<title>8</title>
<polygon fill="#c1ffc1" stroke="none" points="225.5,-1707 16.5,-1707 16.5,-1665 225.5,-1665 225.5,-1707"/>
<polygon fill="none" stroke="black" points="16.5,-1665 16.5,-1707 92.5,-1707 92.5,-1665 16.5,-1665"/>
<text text-anchor="start" x="21.12" y="-1687.75" font-family="Linux libertine" font-size="10.00">BatchNorm2d</text>
<text text-anchor="start" x="36.12" y="-1676.5" font-family="Linux libertine" font-size="10.00">depth:2</text>
<polygon fill="none" stroke="black" points="92.5,-1686 92.5,-1707 139.5,-1707 139.5,-1686 92.5,-1686"/>
<text text-anchor="start" x="102.5" y="-1692.5" font-family="Linux libertine" font-size="10.00">input:</text>
<polygon fill="none" stroke="black" points="139.5,-1686 139.5,-1707 225.5,-1707 225.5,-1686 139.5,-1686"/>
<text text-anchor="start" x="144.25" y="-1692.5" font-family="Linux libertine" font-size="10.00">(1, 128, 24, 24) </text>
<polygon fill="none" stroke="black" points="92.5,-1665 92.5,-1686 139.5,-1686 139.5,-1665 92.5,-1665"/>
<text text-anchor="start" x="97.25" y="-1671.5" font-family="Linux libertine" font-size="10.00">output: </text>
<polygon fill="none" stroke="black" points="139.5,-1665 139.5,-1686 225.5,-1686 225.5,-1665 139.5,-1665"/>
<text text-anchor="start" x="144.25" y="-1671.5" font-family="Linux libertine" font-size="10.00">(1, 128, 24, 24) </text>
</g>
<!-- 7&#45;&gt;8 -->
<g id="edge8" class="edge">
<title>7&#45;&gt;8</title>
<path fill="none" stroke="black" d="M121,-1743.03C121,-1735.44 121,-1726.6 121,-1718.21"/>
<polygon fill="black" stroke="black" points="124.5,-1718.35 121,-1708.35 117.5,-1718.35 124.5,-1718.35"/>
</g>
<!-- 9 -->
<g id="node10" class="node">
<title>9</title>
<polygon fill="#c1ffc1" stroke="none" points="218,-1629 24,-1629 24,-1587 218,-1587 218,-1629"/>
<polygon fill="none" stroke="black" points="24,-1587 24,-1629 85,-1629 85,-1587 24,-1587"/>
<text text-anchor="start" x="28.62" y="-1609.75" font-family="Linux libertine" font-size="10.00">MaxPool2d</text>
<text text-anchor="start" x="36.12" y="-1598.5" font-family="Linux libertine" font-size="10.00">depth:2</text>
<polygon fill="none" stroke="black" points="85,-1608 85,-1629 132,-1629 132,-1608 85,-1608"/>
<text text-anchor="start" x="95" y="-1614.5" font-family="Linux libertine" font-size="10.00">input:</text>
<polygon fill="none" stroke="black" points="132,-1608 132,-1629 218,-1629 218,-1608 132,-1608"/>
<text text-anchor="start" x="136.75" y="-1614.5" font-family="Linux libertine" font-size="10.00">(1, 128, 24, 24) </text>
<polygon fill="none" stroke="black" points="85,-1587 85,-1608 132,-1608 132,-1587 85,-1587"/>
<text text-anchor="start" x="89.75" y="-1593.5" font-family="Linux libertine" font-size="10.00">output: </text>
<polygon fill="none" stroke="black" points="132,-1587 132,-1608 218,-1608 218,-1587 132,-1587"/>
<text text-anchor="start" x="136.75" y="-1593.5" font-family="Linux libertine" font-size="10.00">(1, 128, 12, 12) </text>
</g>
<!-- 8&#45;&gt;9 -->
<g id="edge9" class="edge">
<title>8&#45;&gt;9</title>
<path fill="none" stroke="black" d="M121,-1665.03C121,-1657.44 121,-1648.6 121,-1640.21"/>
<polygon fill="black" stroke="black" points="124.5,-1640.35 121,-1630.35 117.5,-1640.35 124.5,-1640.35"/>
</g>
<!-- 10 -->
<g id="node11" class="node">
<title>10</title>
<polygon fill="#c1ffc1" stroke="none" points="218,-1551 24,-1551 24,-1509 218,-1509 218,-1551"/>
<polygon fill="none" stroke="black" points="24,-1509 24,-1551 85,-1551 85,-1509 24,-1509"/>
<text text-anchor="start" x="29" y="-1531.75" font-family="Linux libertine" font-size="10.00">Dropout2d</text>
<text text-anchor="start" x="36.12" y="-1520.5" font-family="Linux libertine" font-size="10.00">depth:2</text>
<polygon fill="none" stroke="black" points="85,-1530 85,-1551 132,-1551 132,-1530 85,-1530"/>
<text text-anchor="start" x="95" y="-1536.5" font-family="Linux libertine" font-size="10.00">input:</text>
<polygon fill="none" stroke="black" points="132,-1530 132,-1551 218,-1551 218,-1530 132,-1530"/>
<text text-anchor="start" x="136.75" y="-1536.5" font-family="Linux libertine" font-size="10.00">(1, 128, 12, 12) </text>
<polygon fill="none" stroke="black" points="85,-1509 85,-1530 132,-1530 132,-1509 85,-1509"/>
<text text-anchor="start" x="89.75" y="-1515.5" font-family="Linux libertine" font-size="10.00">output: </text>
<polygon fill="none" stroke="black" points="132,-1509 132,-1530 218,-1530 218,-1509 132,-1509"/>
<text text-anchor="start" x="136.75" y="-1515.5" font-family="Linux libertine" font-size="10.00">(1, 128, 12, 12) </text>
</g>
<!-- 9&#45;&gt;10 -->
<g id="edge10" class="edge">
<title>9&#45;&gt;10</title>
<path fill="none" stroke="black" d="M121,-1587.03C121,-1579.44 121,-1570.6 121,-1562.21"/>
<polygon fill="black" stroke="black" points="124.5,-1562.35 121,-1552.35 117.5,-1562.35 124.5,-1562.35"/>
</g>
<!-- 11 -->
<g id="node12" class="node">
<title>11</title>
<polygon fill="#c1ffc1" stroke="none" points="210.5,-1462.75 31.5,-1462.75 31.5,-1420.75 210.5,-1420.75 210.5,-1462.75"/>
<polygon fill="none" stroke="black" points="31.5,-1420.75 31.5,-1462.75 77.5,-1462.75 77.5,-1420.75 31.5,-1420.75"/>
<text text-anchor="start" x="36.5" y="-1443.5" font-family="Linux libertine" font-size="10.00">Conv2d</text>
<text text-anchor="start" x="36.12" y="-1432.25" font-family="Linux libertine" font-size="10.00">depth:2</text>
<polygon fill="none" stroke="black" points="77.5,-1441.75 77.5,-1462.75 124.5,-1462.75 124.5,-1441.75 77.5,-1441.75"/>
<text text-anchor="start" x="87.5" y="-1448.25" font-family="Linux libertine" font-size="10.00">input:</text>
<polygon fill="none" stroke="black" points="124.5,-1441.75 124.5,-1462.75 210.5,-1462.75 210.5,-1441.75 124.5,-1441.75"/>
<text text-anchor="start" x="129.25" y="-1448.25" font-family="Linux libertine" font-size="10.00">(1, 128, 12, 12) </text>
<polygon fill="none" stroke="black" points="77.5,-1420.75 77.5,-1441.75 124.5,-1441.75 124.5,-1420.75 77.5,-1420.75"/>
<text text-anchor="start" x="82.25" y="-1427.25" font-family="Linux libertine" font-size="10.00">output: </text>
<polygon fill="none" stroke="black" points="124.5,-1420.75 124.5,-1441.75 210.5,-1441.75 210.5,-1420.75 124.5,-1420.75"/>
<text text-anchor="start" x="129.25" y="-1427.25" font-family="Linux libertine" font-size="10.00">(1, 256, 12, 12) </text>
</g>
<!-- 10&#45;&gt;11 -->
<g id="edge11" class="edge">
<title>10&#45;&gt;11</title>
<path fill="none" stroke="black" d="M121,-1509.43C121,-1498.92 121,-1485.71 121,-1473.83"/>
<polygon fill="black" stroke="black" points="124.5,-1474.06 121,-1464.06 117.5,-1474.06 124.5,-1474.06"/>
</g>
<!-- 12 -->
<g id="node13" class="node">
<title>12</title>
<polygon fill="#c1ffc1" stroke="none" points="210.5,-1384.75 31.5,-1384.75 31.5,-1342.75 210.5,-1342.75 210.5,-1384.75"/>
<polygon fill="none" stroke="black" points="31.5,-1342.75 31.5,-1384.75 77.5,-1384.75 77.5,-1342.75 31.5,-1342.75"/>
<text text-anchor="start" x="42.12" y="-1365.5" font-family="Linux libertine" font-size="10.00">ReLU</text>
<text text-anchor="start" x="36.12" y="-1354.25" font-family="Linux libertine" font-size="10.00">depth:2</text>
<polygon fill="none" stroke="black" points="77.5,-1363.75 77.5,-1384.75 124.5,-1384.75 124.5,-1363.75 77.5,-1363.75"/>
<text text-anchor="start" x="87.5" y="-1370.25" font-family="Linux libertine" font-size="10.00">input:</text>
<polygon fill="none" stroke="black" points="124.5,-1363.75 124.5,-1384.75 210.5,-1384.75 210.5,-1363.75 124.5,-1363.75"/>
<text text-anchor="start" x="129.25" y="-1370.25" font-family="Linux libertine" font-size="10.00">(1, 256, 12, 12) </text>
<polygon fill="none" stroke="black" points="77.5,-1342.75 77.5,-1363.75 124.5,-1363.75 124.5,-1342.75 77.5,-1342.75"/>
<text text-anchor="start" x="82.25" y="-1349.25" font-family="Linux libertine" font-size="10.00">output: </text>
<polygon fill="none" stroke="black" points="124.5,-1342.75 124.5,-1363.75 210.5,-1363.75 210.5,-1342.75 124.5,-1342.75"/>
<text text-anchor="start" x="129.25" y="-1349.25" font-family="Linux libertine" font-size="10.00">(1, 256, 12, 12) </text>
</g>
<!-- 11&#45;&gt;12 -->
<g id="edge12" class="edge">
<title>11&#45;&gt;12</title>
<path fill="none" stroke="black" d="M121,-1420.78C121,-1413.19 121,-1404.35 121,-1395.96"/>
<polygon fill="black" stroke="black" points="124.5,-1396.1 121,-1386.1 117.5,-1396.1 124.5,-1396.1"/>
</g>
<!-- 13 -->
<g id="node14" class="node">
<title>13</title>
<polygon fill="#c1ffc1" stroke="none" points="225.5,-1306.75 16.5,-1306.75 16.5,-1264.75 225.5,-1264.75 225.5,-1306.75"/>
<polygon fill="none" stroke="black" points="16.5,-1264.75 16.5,-1306.75 92.5,-1306.75 92.5,-1264.75 16.5,-1264.75"/>
<text text-anchor="start" x="21.12" y="-1287.5" font-family="Linux libertine" font-size="10.00">BatchNorm2d</text>
<text text-anchor="start" x="36.12" y="-1276.25" font-family="Linux libertine" font-size="10.00">depth:2</text>
<polygon fill="none" stroke="black" points="92.5,-1285.75 92.5,-1306.75 139.5,-1306.75 139.5,-1285.75 92.5,-1285.75"/>
<text text-anchor="start" x="102.5" y="-1292.25" font-family="Linux libertine" font-size="10.00">input:</text>
<polygon fill="none" stroke="black" points="139.5,-1285.75 139.5,-1306.75 225.5,-1306.75 225.5,-1285.75 139.5,-1285.75"/>
<text text-anchor="start" x="144.25" y="-1292.25" font-family="Linux libertine" font-size="10.00">(1, 256, 12, 12) </text>
<polygon fill="none" stroke="black" points="92.5,-1264.75 92.5,-1285.75 139.5,-1285.75 139.5,-1264.75 92.5,-1264.75"/>
<text text-anchor="start" x="97.25" y="-1271.25" font-family="Linux libertine" font-size="10.00">output: </text>
<polygon fill="none" stroke="black" points="139.5,-1264.75 139.5,-1285.75 225.5,-1285.75 225.5,-1264.75 139.5,-1264.75"/>
<text text-anchor="start" x="144.25" y="-1271.25" font-family="Linux libertine" font-size="10.00">(1, 256, 12, 12) </text>
</g>
<!-- 12&#45;&gt;13 -->
<g id="edge13" class="edge">
<title>12&#45;&gt;13</title>
<path fill="none" stroke="black" d="M121,-1342.78C121,-1335.19 121,-1326.35 121,-1317.96"/>
<polygon fill="black" stroke="black" points="124.5,-1318.1 121,-1308.1 117.5,-1318.1 124.5,-1318.1"/>
</g>
<!-- 14 -->
<g id="node15" class="node">
<title>14</title>
<polygon fill="#c1ffc1" stroke="none" points="218,-1228.75 24,-1228.75 24,-1186.75 218,-1186.75 218,-1228.75"/>
<polygon fill="none" stroke="black" points="24,-1186.75 24,-1228.75 85,-1228.75 85,-1186.75 24,-1186.75"/>
<text text-anchor="start" x="28.62" y="-1209.5" font-family="Linux libertine" font-size="10.00">MaxPool2d</text>
<text text-anchor="start" x="36.12" y="-1198.25" font-family="Linux libertine" font-size="10.00">depth:2</text>
<polygon fill="none" stroke="black" points="85,-1207.75 85,-1228.75 132,-1228.75 132,-1207.75 85,-1207.75"/>
<text text-anchor="start" x="95" y="-1214.25" font-family="Linux libertine" font-size="10.00">input:</text>
<polygon fill="none" stroke="black" points="132,-1207.75 132,-1228.75 218,-1228.75 218,-1207.75 132,-1207.75"/>
<text text-anchor="start" x="136.75" y="-1214.25" font-family="Linux libertine" font-size="10.00">(1, 256, 12, 12) </text>
<polygon fill="none" stroke="black" points="85,-1186.75 85,-1207.75 132,-1207.75 132,-1186.75 85,-1186.75"/>
<text text-anchor="start" x="89.75" y="-1193.25" font-family="Linux libertine" font-size="10.00">output: </text>
<polygon fill="none" stroke="black" points="132,-1186.75 132,-1207.75 218,-1207.75 218,-1186.75 132,-1186.75"/>
<text text-anchor="start" x="142.75" y="-1193.25" font-family="Linux libertine" font-size="10.00">(1, 256, 6, 6) </text>
</g>
<!-- 13&#45;&gt;14 -->
<g id="edge14" class="edge">
<title>13&#45;&gt;14</title>
<path fill="none" stroke="black" d="M121,-1264.78C121,-1257.19 121,-1248.35 121,-1239.96"/>
<polygon fill="black" stroke="black" points="124.5,-1240.1 121,-1230.1 117.5,-1240.1 124.5,-1240.1"/>
</g>
<!-- 15 -->
<g id="node16" class="node">
<title>15</title>
<polygon fill="#c1ffc1" stroke="none" points="212,-1150.75 30,-1150.75 30,-1108.75 212,-1108.75 212,-1150.75"/>
<polygon fill="none" stroke="black" points="30,-1108.75 30,-1150.75 91,-1150.75 91,-1108.75 30,-1108.75"/>
<text text-anchor="start" x="35" y="-1131.5" font-family="Linux libertine" font-size="10.00">Dropout2d</text>
<text text-anchor="start" x="42.12" y="-1120.25" font-family="Linux libertine" font-size="10.00">depth:2</text>
<polygon fill="none" stroke="black" points="91,-1129.75 91,-1150.75 138,-1150.75 138,-1129.75 91,-1129.75"/>
<text text-anchor="start" x="101" y="-1136.25" font-family="Linux libertine" font-size="10.00">input:</text>
<polygon fill="none" stroke="black" points="138,-1129.75 138,-1150.75 212,-1150.75 212,-1129.75 138,-1129.75"/>
<text text-anchor="start" x="142.75" y="-1136.25" font-family="Linux libertine" font-size="10.00">(1, 256, 6, 6) </text>
<polygon fill="none" stroke="black" points="91,-1108.75 91,-1129.75 138,-1129.75 138,-1108.75 91,-1108.75"/>
<text text-anchor="start" x="95.75" y="-1115.25" font-family="Linux libertine" font-size="10.00">output: </text>
<polygon fill="none" stroke="black" points="138,-1108.75 138,-1129.75 212,-1129.75 212,-1108.75 138,-1108.75"/>
<text text-anchor="start" x="142.75" y="-1115.25" font-family="Linux libertine" font-size="10.00">(1, 256, 6, 6) </text>
</g>
<!-- 14&#45;&gt;15 -->
<g id="edge15" class="edge">
<title>14&#45;&gt;15</title>
<path fill="none" stroke="black" d="M121,-1186.78C121,-1179.19 121,-1170.35 121,-1161.96"/>
<polygon fill="black" stroke="black" points="124.5,-1162.1 121,-1152.1 117.5,-1162.1 124.5,-1162.1"/>
</g>
<!-- 16 -->
<g id="node17" class="node">
<title>16</title>
<polygon fill="#c1ffc1" stroke="none" points="204.5,-1072.75 37.5,-1072.75 37.5,-1030.75 204.5,-1030.75 204.5,-1072.75"/>
<polygon fill="none" stroke="black" points="37.5,-1030.75 37.5,-1072.75 83.5,-1072.75 83.5,-1030.75 37.5,-1030.75"/>
<text text-anchor="start" x="42.5" y="-1053.5" font-family="Linux libertine" font-size="10.00">Conv2d</text>
<text text-anchor="start" x="42.12" y="-1042.25" font-family="Linux libertine" font-size="10.00">depth:2</text>
<polygon fill="none" stroke="black" points="83.5,-1051.75 83.5,-1072.75 130.5,-1072.75 130.5,-1051.75 83.5,-1051.75"/>
<text text-anchor="start" x="93.5" y="-1058.25" font-family="Linux libertine" font-size="10.00">input:</text>
<polygon fill="none" stroke="black" points="130.5,-1051.75 130.5,-1072.75 204.5,-1072.75 204.5,-1051.75 130.5,-1051.75"/>
<text text-anchor="start" x="135.25" y="-1058.25" font-family="Linux libertine" font-size="10.00">(1, 256, 6, 6) </text>
<polygon fill="none" stroke="black" points="83.5,-1030.75 83.5,-1051.75 130.5,-1051.75 130.5,-1030.75 83.5,-1030.75"/>
<text text-anchor="start" x="88.25" y="-1037.25" font-family="Linux libertine" font-size="10.00">output: </text>
<polygon fill="none" stroke="black" points="130.5,-1030.75 130.5,-1051.75 204.5,-1051.75 204.5,-1030.75 130.5,-1030.75"/>
<text text-anchor="start" x="135.25" y="-1037.25" font-family="Linux libertine" font-size="10.00">(1, 256, 6, 6) </text>
</g>
<!-- 15&#45;&gt;16 -->
<g id="edge16" class="edge">
<title>15&#45;&gt;16</title>
<path fill="none" stroke="black" d="M121,-1108.78C121,-1101.19 121,-1092.35 121,-1083.96"/>
<polygon fill="black" stroke="black" points="124.5,-1084.1 121,-1074.1 117.5,-1084.1 124.5,-1084.1"/>
</g>
<!-- 17 -->
<g id="node18" class="node">
<title>17</title>
<polygon fill="#c1ffc1" stroke="none" points="204.5,-994.75 37.5,-994.75 37.5,-952.75 204.5,-952.75 204.5,-994.75"/>
<polygon fill="none" stroke="black" points="37.5,-952.75 37.5,-994.75 83.5,-994.75 83.5,-952.75 37.5,-952.75"/>
<text text-anchor="start" x="48.12" y="-975.5" font-family="Linux libertine" font-size="10.00">ReLU</text>
<text text-anchor="start" x="42.12" y="-964.25" font-family="Linux libertine" font-size="10.00">depth:2</text>
<polygon fill="none" stroke="black" points="83.5,-973.75 83.5,-994.75 130.5,-994.75 130.5,-973.75 83.5,-973.75"/>
<text text-anchor="start" x="93.5" y="-980.25" font-family="Linux libertine" font-size="10.00">input:</text>
<polygon fill="none" stroke="black" points="130.5,-973.75 130.5,-994.75 204.5,-994.75 204.5,-973.75 130.5,-973.75"/>
<text text-anchor="start" x="135.25" y="-980.25" font-family="Linux libertine" font-size="10.00">(1, 256, 6, 6) </text>
<polygon fill="none" stroke="black" points="83.5,-952.75 83.5,-973.75 130.5,-973.75 130.5,-952.75 83.5,-952.75"/>
<text text-anchor="start" x="88.25" y="-959.25" font-family="Linux libertine" font-size="10.00">output: </text>
<polygon fill="none" stroke="black" points="130.5,-952.75 130.5,-973.75 204.5,-973.75 204.5,-952.75 130.5,-952.75"/>
<text text-anchor="start" x="135.25" y="-959.25" font-family="Linux libertine" font-size="10.00">(1, 256, 6, 6) </text>
</g>
<!-- 16&#45;&gt;17 -->
<g id="edge17" class="edge">
<title>16&#45;&gt;17</title>
<path fill="none" stroke="black" d="M121,-1030.78C121,-1023.19 121,-1014.35 121,-1005.96"/>
<polygon fill="black" stroke="black" points="124.5,-1006.1 121,-996.1 117.5,-1006.1 124.5,-1006.1"/>
</g>
<!-- 18 -->
<g id="node19" class="node">
<title>18</title>
<polygon fill="#c1ffc1" stroke="none" points="219.5,-916.75 22.5,-916.75 22.5,-874.75 219.5,-874.75 219.5,-916.75"/>
<polygon fill="none" stroke="black" points="22.5,-874.75 22.5,-916.75 98.5,-916.75 98.5,-874.75 22.5,-874.75"/>
<text text-anchor="start" x="27.12" y="-897.5" font-family="Linux libertine" font-size="10.00">BatchNorm2d</text>
<text text-anchor="start" x="42.12" y="-886.25" font-family="Linux libertine" font-size="10.00">depth:2</text>
<polygon fill="none" stroke="black" points="98.5,-895.75 98.5,-916.75 145.5,-916.75 145.5,-895.75 98.5,-895.75"/>
<text text-anchor="start" x="108.5" y="-902.25" font-family="Linux libertine" font-size="10.00">input:</text>
<polygon fill="none" stroke="black" points="145.5,-895.75 145.5,-916.75 219.5,-916.75 219.5,-895.75 145.5,-895.75"/>
<text text-anchor="start" x="150.25" y="-902.25" font-family="Linux libertine" font-size="10.00">(1, 256, 6, 6) </text>
<polygon fill="none" stroke="black" points="98.5,-874.75 98.5,-895.75 145.5,-895.75 145.5,-874.75 98.5,-874.75"/>
<text text-anchor="start" x="103.25" y="-881.25" font-family="Linux libertine" font-size="10.00">output: </text>
<polygon fill="none" stroke="black" points="145.5,-874.75 145.5,-895.75 219.5,-895.75 219.5,-874.75 145.5,-874.75"/>
<text text-anchor="start" x="150.25" y="-881.25" font-family="Linux libertine" font-size="10.00">(1, 256, 6, 6) </text>
</g>
<!-- 17&#45;&gt;18 -->
<g id="edge18" class="edge">
<title>17&#45;&gt;18</title>
<path fill="none" stroke="black" d="M121,-952.78C121,-945.19 121,-936.35 121,-927.96"/>
<polygon fill="black" stroke="black" points="124.5,-928.1 121,-918.1 117.5,-928.1 124.5,-928.1"/>
</g>
<!-- 19 -->
<g id="node20" class="node">
<title>19</title>
<polygon fill="#c1ffc1" stroke="none" points="212,-838.75 30,-838.75 30,-796.75 212,-796.75 212,-838.75"/>
<polygon fill="none" stroke="black" points="30,-796.75 30,-838.75 91,-838.75 91,-796.75 30,-796.75"/>
<text text-anchor="start" x="34.62" y="-819.5" font-family="Linux libertine" font-size="10.00">MaxPool2d</text>
<text text-anchor="start" x="42.12" y="-808.25" font-family="Linux libertine" font-size="10.00">depth:2</text>
<polygon fill="none" stroke="black" points="91,-817.75 91,-838.75 138,-838.75 138,-817.75 91,-817.75"/>
<text text-anchor="start" x="101" y="-824.25" font-family="Linux libertine" font-size="10.00">input:</text>
<polygon fill="none" stroke="black" points="138,-817.75 138,-838.75 212,-838.75 212,-817.75 138,-817.75"/>
<text text-anchor="start" x="142.75" y="-824.25" font-family="Linux libertine" font-size="10.00">(1, 256, 6, 6) </text>
<polygon fill="none" stroke="black" points="91,-796.75 91,-817.75 138,-817.75 138,-796.75 91,-796.75"/>
<text text-anchor="start" x="95.75" y="-803.25" font-family="Linux libertine" font-size="10.00">output: </text>
<polygon fill="none" stroke="black" points="138,-796.75 138,-817.75 212,-817.75 212,-796.75 138,-796.75"/>
<text text-anchor="start" x="142.75" y="-803.25" font-family="Linux libertine" font-size="10.00">(1, 256, 3, 3) </text>
</g>
<!-- 18&#45;&gt;19 -->
<g id="edge19" class="edge">
<title>18&#45;&gt;19</title>
<path fill="none" stroke="black" d="M121,-874.78C121,-867.19 121,-858.35 121,-849.96"/>
<polygon fill="black" stroke="black" points="124.5,-850.1 121,-840.1 117.5,-850.1 124.5,-850.1"/>
</g>
<!-- 20 -->
<g id="node21" class="node">
<title>20</title>
<polygon fill="#c1ffc1" stroke="none" points="212,-760.75 30,-760.75 30,-718.75 212,-718.75 212,-760.75"/>
<polygon fill="none" stroke="black" points="30,-718.75 30,-760.75 91,-760.75 91,-718.75 30,-718.75"/>
<text text-anchor="start" x="35" y="-741.5" font-family="Linux libertine" font-size="10.00">Dropout2d</text>
<text text-anchor="start" x="42.12" y="-730.25" font-family="Linux libertine" font-size="10.00">depth:2</text>
<polygon fill="none" stroke="black" points="91,-739.75 91,-760.75 138,-760.75 138,-739.75 91,-739.75"/>
<text text-anchor="start" x="101" y="-746.25" font-family="Linux libertine" font-size="10.00">input:</text>
<polygon fill="none" stroke="black" points="138,-739.75 138,-760.75 212,-760.75 212,-739.75 138,-739.75"/>
<text text-anchor="start" x="142.75" y="-746.25" font-family="Linux libertine" font-size="10.00">(1, 256, 3, 3) </text>
<polygon fill="none" stroke="black" points="91,-718.75 91,-739.75 138,-739.75 138,-718.75 91,-718.75"/>
<text text-anchor="start" x="95.75" y="-725.25" font-family="Linux libertine" font-size="10.00">output: </text>
<polygon fill="none" stroke="black" points="138,-718.75 138,-739.75 212,-739.75 212,-718.75 138,-718.75"/>
<text text-anchor="start" x="142.75" y="-725.25" font-family="Linux libertine" font-size="10.00">(1, 256, 3, 3) </text>
</g>
<!-- 19&#45;&gt;20 -->
<g id="edge20" class="edge">
<title>19&#45;&gt;20</title>
<path fill="none" stroke="black" d="M121,-796.78C121,-789.19 121,-780.35 121,-771.96"/>
<polygon fill="black" stroke="black" points="124.5,-772.1 121,-762.1 117.5,-772.1 124.5,-772.1"/>
</g>
<!-- 21 -->
<g id="node22" class="node">
<title>21</title>
<polygon fill="#c1ffc1" stroke="none" points="204.5,-672.5 37.5,-672.5 37.5,-630.5 204.5,-630.5 204.5,-672.5"/>
<polygon fill="none" stroke="black" points="37.5,-630.5 37.5,-672.5 83.5,-672.5 83.5,-630.5 37.5,-630.5"/>
<text text-anchor="start" x="44" y="-653.25" font-family="Linux libertine" font-size="10.00">Flatten</text>
<text text-anchor="start" x="42.12" y="-642" font-family="Linux libertine" font-size="10.00">depth:2</text>
<polygon fill="none" stroke="black" points="83.5,-651.5 83.5,-672.5 130.5,-672.5 130.5,-651.5 83.5,-651.5"/>
<text text-anchor="start" x="93.5" y="-658" font-family="Linux libertine" font-size="10.00">input:</text>
<polygon fill="none" stroke="black" points="130.5,-651.5 130.5,-672.5 204.5,-672.5 204.5,-651.5 130.5,-651.5"/>
<text text-anchor="start" x="135.25" y="-658" font-family="Linux libertine" font-size="10.00">(1, 256, 3, 3) </text>
<polygon fill="none" stroke="black" points="83.5,-630.5 83.5,-651.5 130.5,-651.5 130.5,-630.5 83.5,-630.5"/>
<text text-anchor="start" x="88.25" y="-637" font-family="Linux libertine" font-size="10.00">output: </text>
<polygon fill="none" stroke="black" points="130.5,-630.5 130.5,-651.5 204.5,-651.5 204.5,-630.5 130.5,-630.5"/>
<text text-anchor="start" x="144.25" y="-637" font-family="Linux libertine" font-size="10.00">(1, 2304) </text>
</g>
<!-- 20&#45;&gt;21 -->
<g id="edge21" class="edge">
<title>20&#45;&gt;21</title>
<path fill="none" stroke="black" d="M121,-719.18C121,-708.67 121,-695.46 121,-683.58"/>
<polygon fill="black" stroke="black" points="124.5,-683.81 121,-673.81 117.5,-683.81 124.5,-683.81"/>
</g>
<!-- 22 -->
<g id="node23" class="node">
<title>22</title>
<polygon fill="#c1ffc1" stroke="none" points="195.5,-594.5 46.5,-594.5 46.5,-552.5 195.5,-552.5 195.5,-594.5"/>
<polygon fill="none" stroke="black" points="46.5,-552.5 46.5,-594.5 92.5,-594.5 92.5,-552.5 46.5,-552.5"/>
<text text-anchor="start" x="54.88" y="-575.25" font-family="Linux libertine" font-size="10.00">Linear</text>
<text text-anchor="start" x="51.12" y="-564" font-family="Linux libertine" font-size="10.00">depth:2</text>
<polygon fill="none" stroke="black" points="92.5,-573.5 92.5,-594.5 139.5,-594.5 139.5,-573.5 92.5,-573.5"/>
<text text-anchor="start" x="102.5" y="-580" font-family="Linux libertine" font-size="10.00">input:</text>
<polygon fill="none" stroke="black" points="139.5,-573.5 139.5,-594.5 195.5,-594.5 195.5,-573.5 139.5,-573.5"/>
<text text-anchor="start" x="144.25" y="-580" font-family="Linux libertine" font-size="10.00">(1, 2304) </text>
<polygon fill="none" stroke="black" points="92.5,-552.5 92.5,-573.5 139.5,-573.5 139.5,-552.5 92.5,-552.5"/>
<text text-anchor="start" x="97.25" y="-559" font-family="Linux libertine" font-size="10.00">output: </text>
<polygon fill="none" stroke="black" points="139.5,-552.5 139.5,-573.5 195.5,-573.5 195.5,-552.5 139.5,-552.5"/>
<text text-anchor="start" x="147.25" y="-559" font-family="Linux libertine" font-size="10.00">(1, 256) </text>
</g>
<!-- 21&#45;&gt;22 -->
<g id="edge22" class="edge">
<title>21&#45;&gt;22</title>
<path fill="none" stroke="black" d="M121,-630.53C121,-622.94 121,-614.1 121,-605.71"/>
<polygon fill="black" stroke="black" points="124.5,-605.85 121,-595.85 117.5,-605.85 124.5,-605.85"/>
</g>
<!-- 23 -->
<g id="node24" class="node">
<title>23</title>
<polygon fill="#c1ffc1" stroke="none" points="207.5,-516.5 34.5,-516.5 34.5,-474.5 207.5,-474.5 207.5,-516.5"/>
<polygon fill="none" stroke="black" points="34.5,-474.5 34.5,-516.5 110.5,-516.5 110.5,-474.5 34.5,-474.5"/>
<text text-anchor="start" x="39.12" y="-497.25" font-family="Linux libertine" font-size="10.00">BatchNorm1d</text>
<text text-anchor="start" x="54.12" y="-486" font-family="Linux libertine" font-size="10.00">depth:2</text>
<polygon fill="none" stroke="black" points="110.5,-495.5 110.5,-516.5 157.5,-516.5 157.5,-495.5 110.5,-495.5"/>
<text text-anchor="start" x="120.5" y="-502" font-family="Linux libertine" font-size="10.00">input:</text>
<polygon fill="none" stroke="black" points="157.5,-495.5 157.5,-516.5 207.5,-516.5 207.5,-495.5 157.5,-495.5"/>
<text text-anchor="start" x="162.25" y="-502" font-family="Linux libertine" font-size="10.00">(1, 256) </text>
<polygon fill="none" stroke="black" points="110.5,-474.5 110.5,-495.5 157.5,-495.5 157.5,-474.5 110.5,-474.5"/>
<text text-anchor="start" x="115.25" y="-481" font-family="Linux libertine" font-size="10.00">output: </text>
<polygon fill="none" stroke="black" points="157.5,-474.5 157.5,-495.5 207.5,-495.5 207.5,-474.5 157.5,-474.5"/>
<text text-anchor="start" x="162.25" y="-481" font-family="Linux libertine" font-size="10.00">(1, 256) </text>
</g>
<!-- 22&#45;&gt;23 -->
<g id="edge23" class="edge">
<title>22&#45;&gt;23</title>
<path fill="none" stroke="black" d="M121,-552.53C121,-544.94 121,-536.1 121,-527.71"/>
<polygon fill="black" stroke="black" points="124.5,-527.85 121,-517.85 117.5,-527.85 124.5,-527.85"/>
</g>
<!-- 24 -->
<g id="node25" class="node">
<title>24</title>
<polygon fill="#c1ffc1" stroke="none" points="200,-438.5 42,-438.5 42,-396.5 200,-396.5 200,-438.5"/>
<polygon fill="none" stroke="black" points="42,-396.5 42,-438.5 103,-438.5 103,-396.5 42,-396.5"/>
<text text-anchor="start" x="47" y="-419.25" font-family="Linux libertine" font-size="10.00">Dropout1d</text>
<text text-anchor="start" x="54.12" y="-408" font-family="Linux libertine" font-size="10.00">depth:2</text>
<polygon fill="none" stroke="black" points="103,-417.5 103,-438.5 150,-438.5 150,-417.5 103,-417.5"/>
<text text-anchor="start" x="113" y="-424" font-family="Linux libertine" font-size="10.00">input:</text>
<polygon fill="none" stroke="black" points="150,-417.5 150,-438.5 200,-438.5 200,-417.5 150,-417.5"/>
<text text-anchor="start" x="154.75" y="-424" font-family="Linux libertine" font-size="10.00">(1, 256) </text>
<polygon fill="none" stroke="black" points="103,-396.5 103,-417.5 150,-417.5 150,-396.5 103,-396.5"/>
<text text-anchor="start" x="107.75" y="-403" font-family="Linux libertine" font-size="10.00">output: </text>
<polygon fill="none" stroke="black" points="150,-396.5 150,-417.5 200,-417.5 200,-396.5 150,-396.5"/>
<text text-anchor="start" x="154.75" y="-403" font-family="Linux libertine" font-size="10.00">(1, 256) </text>
</g>
<!-- 23&#45;&gt;24 -->
<g id="edge24" class="edge">
<title>23&#45;&gt;24</title>
<path fill="none" stroke="black" d="M121,-474.53C121,-466.94 121,-458.1 121,-449.71"/>
<polygon fill="black" stroke="black" points="124.5,-449.85 121,-439.85 117.5,-449.85 124.5,-449.85"/>
</g>
<!-- 25 -->
<g id="node26" class="node">
<title>25</title>
<polygon fill="#c1ffc1" stroke="none" points="192.5,-360.5 49.5,-360.5 49.5,-318.5 192.5,-318.5 192.5,-360.5"/>
<polygon fill="none" stroke="black" points="49.5,-318.5 49.5,-360.5 95.5,-360.5 95.5,-318.5 49.5,-318.5"/>
<text text-anchor="start" x="57.88" y="-341.25" font-family="Linux libertine" font-size="10.00">Linear</text>
<text text-anchor="start" x="54.12" y="-330" font-family="Linux libertine" font-size="10.00">depth:2</text>
<polygon fill="none" stroke="black" points="95.5,-339.5 95.5,-360.5 142.5,-360.5 142.5,-339.5 95.5,-339.5"/>
<text text-anchor="start" x="105.5" y="-346" font-family="Linux libertine" font-size="10.00">input:</text>
<polygon fill="none" stroke="black" points="142.5,-339.5 142.5,-360.5 192.5,-360.5 192.5,-339.5 142.5,-339.5"/>
<text text-anchor="start" x="147.25" y="-346" font-family="Linux libertine" font-size="10.00">(1, 256) </text>
<polygon fill="none" stroke="black" points="95.5,-318.5 95.5,-339.5 142.5,-339.5 142.5,-318.5 95.5,-318.5"/>
<text text-anchor="start" x="100.25" y="-325" font-family="Linux libertine" font-size="10.00">output: </text>
<polygon fill="none" stroke="black" points="142.5,-318.5 142.5,-339.5 192.5,-339.5 192.5,-318.5 142.5,-318.5"/>
<text text-anchor="start" x="147.25" y="-325" font-family="Linux libertine" font-size="10.00">(1, 128) </text>
</g>
<!-- 24&#45;&gt;25 -->
<g id="edge25" class="edge">
<title>24&#45;&gt;25</title>
<path fill="none" stroke="black" d="M121,-396.53C121,-388.94 121,-380.1 121,-371.71"/>
<polygon fill="black" stroke="black" points="124.5,-371.85 121,-361.85 117.5,-371.85 124.5,-371.85"/>
</g>
<!-- 26 -->
<g id="node27" class="node">
<title>26</title>
<polygon fill="#c1ffc1" stroke="none" points="207.5,-282.5 34.5,-282.5 34.5,-240.5 207.5,-240.5 207.5,-282.5"/>
<polygon fill="none" stroke="black" points="34.5,-240.5 34.5,-282.5 110.5,-282.5 110.5,-240.5 34.5,-240.5"/>
<text text-anchor="start" x="39.12" y="-263.25" font-family="Linux libertine" font-size="10.00">BatchNorm1d</text>
<text text-anchor="start" x="54.12" y="-252" font-family="Linux libertine" font-size="10.00">depth:2</text>
<polygon fill="none" stroke="black" points="110.5,-261.5 110.5,-282.5 157.5,-282.5 157.5,-261.5 110.5,-261.5"/>
<text text-anchor="start" x="120.5" y="-268" font-family="Linux libertine" font-size="10.00">input:</text>
<polygon fill="none" stroke="black" points="157.5,-261.5 157.5,-282.5 207.5,-282.5 207.5,-261.5 157.5,-261.5"/>
<text text-anchor="start" x="162.25" y="-268" font-family="Linux libertine" font-size="10.00">(1, 128) </text>
<polygon fill="none" stroke="black" points="110.5,-240.5 110.5,-261.5 157.5,-261.5 157.5,-240.5 110.5,-240.5"/>
<text text-anchor="start" x="115.25" y="-247" font-family="Linux libertine" font-size="10.00">output: </text>
<polygon fill="none" stroke="black" points="157.5,-240.5 157.5,-261.5 207.5,-261.5 207.5,-240.5 157.5,-240.5"/>
<text text-anchor="start" x="162.25" y="-247" font-family="Linux libertine" font-size="10.00">(1, 128) </text>
</g>
<!-- 25&#45;&gt;26 -->
<g id="edge26" class="edge">
<title>25&#45;&gt;26</title>
<path fill="none" stroke="black" d="M121,-318.53C121,-310.94 121,-302.1 121,-293.71"/>
<polygon fill="black" stroke="black" points="124.5,-293.85 121,-283.85 117.5,-293.85 124.5,-293.85"/>
</g>
<!-- 27 -->
<g id="node28" class="node">
<title>27</title>
<polygon fill="#c1ffc1" stroke="none" points="200,-204.5 42,-204.5 42,-162.5 200,-162.5 200,-204.5"/>
<polygon fill="none" stroke="black" points="42,-162.5 42,-204.5 103,-204.5 103,-162.5 42,-162.5"/>
<text text-anchor="start" x="47" y="-185.25" font-family="Linux libertine" font-size="10.00">Dropout1d</text>
<text text-anchor="start" x="54.12" y="-174" font-family="Linux libertine" font-size="10.00">depth:2</text>
<polygon fill="none" stroke="black" points="103,-183.5 103,-204.5 150,-204.5 150,-183.5 103,-183.5"/>
<text text-anchor="start" x="113" y="-190" font-family="Linux libertine" font-size="10.00">input:</text>
<polygon fill="none" stroke="black" points="150,-183.5 150,-204.5 200,-204.5 200,-183.5 150,-183.5"/>
<text text-anchor="start" x="154.75" y="-190" font-family="Linux libertine" font-size="10.00">(1, 128) </text>
<polygon fill="none" stroke="black" points="103,-162.5 103,-183.5 150,-183.5 150,-162.5 103,-162.5"/>
<text text-anchor="start" x="107.75" y="-169" font-family="Linux libertine" font-size="10.00">output: </text>
<polygon fill="none" stroke="black" points="150,-162.5 150,-183.5 200,-183.5 200,-162.5 150,-162.5"/>
<text text-anchor="start" x="154.75" y="-169" font-family="Linux libertine" font-size="10.00">(1, 128) </text>
</g>
<!-- 26&#45;&gt;27 -->
<g id="edge27" class="edge">
<title>26&#45;&gt;27</title>
<path fill="none" stroke="black" d="M121,-240.53C121,-232.94 121,-224.1 121,-215.71"/>
<polygon fill="black" stroke="black" points="124.5,-215.85 121,-205.85 117.5,-215.85 124.5,-215.85"/>
</g>
<!-- 28 -->
<g id="node29" class="node">
<title>28</title>
<polygon fill="#c1ffc1" stroke="none" points="192.5,-126.5 49.5,-126.5 49.5,-84.5 192.5,-84.5 192.5,-126.5"/>
<polygon fill="none" stroke="black" points="49.5,-84.5 49.5,-126.5 95.5,-126.5 95.5,-84.5 49.5,-84.5"/>
<text text-anchor="start" x="57.88" y="-107.25" font-family="Linux libertine" font-size="10.00">Linear</text>
<text text-anchor="start" x="54.12" y="-96" font-family="Linux libertine" font-size="10.00">depth:2</text>
<polygon fill="none" stroke="black" points="95.5,-105.5 95.5,-126.5 142.5,-126.5 142.5,-105.5 95.5,-105.5"/>
<text text-anchor="start" x="105.5" y="-112" font-family="Linux libertine" font-size="10.00">input:</text>
<polygon fill="none" stroke="black" points="142.5,-105.5 142.5,-126.5 192.5,-126.5 192.5,-105.5 142.5,-105.5"/>
<text text-anchor="start" x="147.25" y="-112" font-family="Linux libertine" font-size="10.00">(1, 128) </text>
<polygon fill="none" stroke="black" points="95.5,-84.5 95.5,-105.5 142.5,-105.5 142.5,-84.5 95.5,-84.5"/>
<text text-anchor="start" x="100.25" y="-91" font-family="Linux libertine" font-size="10.00">output: </text>
<polygon fill="none" stroke="black" points="142.5,-84.5 142.5,-105.5 192.5,-105.5 192.5,-84.5 142.5,-84.5"/>
<text text-anchor="start" x="153.25" y="-91" font-family="Linux libertine" font-size="10.00">(1, 7) </text>
</g>
<!-- 27&#45;&gt;28 -->
<g id="edge28" class="edge">
<title>27&#45;&gt;28</title>
<path fill="none" stroke="black" d="M121,-162.53C121,-154.94 121,-146.1 121,-137.71"/>
<polygon fill="black" stroke="black" points="124.5,-137.85 121,-127.85 117.5,-137.85 124.5,-137.85"/>
</g>
<!-- 29 -->
<g id="node30" class="node">
<title>29</title>
<polygon fill="lightyellow" stroke="none" points="176.75,-48.5 65.25,-48.5 65.25,-16 176.75,-16 176.75,-48.5"/>
<polygon fill="none" stroke="black" points="65.25,-16 65.25,-48.5 141.25,-48.5 141.25,-16 65.25,-16"/>
<text text-anchor="start" x="70.25" y="-34" font-family="Linux libertine" font-size="10.00">output&#45;tensor</text>
<text text-anchor="start" x="84.88" y="-22.75" font-family="Linux libertine" font-size="10.00">depth:0</text>
<polygon fill="none" stroke="black" points="141.25,-16 141.25,-48.5 176.75,-48.5 176.75,-16 141.25,-16"/>
<text text-anchor="start" x="146.25" y="-28.38" font-family="Linux libertine" font-size="10.00">(1, 7)</text>
</g>
<!-- 28&#45;&gt;29 -->
<g id="edge29" class="edge">
<title>28&#45;&gt;29</title>
<path fill="none" stroke="black" d="M121,-84.65C121,-76.91 121,-67.91 121,-59.63"/>
<polygon fill="black" stroke="black" points="124.5,-59.76 121,-49.76 117.5,-59.76 124.5,-59.76"/>
</g>
</g>
</svg>
